<svg xmlns="http://www.w3.org/2000/svg" style="display:block" viewBox="0 0 1024 1024"><path d="M0 0c7.248 4.788 11.93 11.704 14.64 19.95 1.72 9.807.593 18.831-5.04 27.106C4.694 53.427-.815 59.075-6.526 64.723q-1.5 1.493-2.997 2.988a3889 3889 0 0 1-7.817 7.767q-4.006 3.98-8.005 7.965A10931 10931 0 0 1-41 99c2.405 1.203 3.95 1.1 6.625 1.063l2.477-.028L-30 100l1-2 2 2c2.684.246 2.684.246 5.844.125l3.677-.052L-13.5 100c60.118-.587 108.83 18.351 151.99 60.27 12.213 12.02 22.639 25.432 31.467 40.136 1.077 1.764 1.077 1.764 3.043 3.594a247 247 0 0 1 3.875 7.563l1.08 2.184C185 228.065 185 228.065 185 231h2l.281-2.04c.903-3.718 2.49-6.947 4.219-10.335l1.066-2.11C197.79 206.333 203.92 196.689 210 187l1-2 2.266-2.234c2.304-2.332 4.27-4.694 6.22-7.32C229.458 162.062 241.672 150.037 255 140l2.656-2.031c37.42-27.957 78.773-38.435 125.005-37.933l3.14.026 2.817.036c2.532.006 2.532.006 5.382-1.098q2.512.44 5 1h3l1-2v2l9-1-3.187-3.187L405 92l-2.313-2.281c-2.65-2.682-5.177-5.44-7.699-8.242a298 298 0 0 0-12.32-12.766l-1.61-1.58c-2.17-2.125-4.342-4.247-6.528-6.355-16.988-16.413-16.988-16.413-17.733-27.913-.145-10.946 1.115-18.247 8.176-26.785 6.793-6.963 14.433-10.33 24.152-10.578l3.633-.156c11.503.98 20.074 9.63 27.695 17.453a1967 1967 0 0 0 3.11 3.121 1106 1106 0 0 1 6.423 6.505c2.736 2.794 5.49 5.57 8.252 8.34q3.194 3.208 6.377 6.428 1.522 1.54 3.048 3.077a1053 1053 0 0 1 4.213 4.286l2.42 2.462C456 49 456 49 456 51l1.644.661c3.152 1.791 5.518 4.214 8.055 6.763l1.692 1.677a1766 1766 0 0 1 5.511 5.5l3.848 3.836q4.035 4.022 8.057 8.055A3436 3436 0 0 0 495.11 87.76q3.979 3.96 7.945 7.932a1411 1411 0 0 0 3.797 3.782c9.972 9.902 18.232 18.614 19.242 33.26-.241 8.403-3.653 15.966-9.094 22.266h-2v2c-1.355 1.332-1.355 1.332-3.187 2.813-3.138 2.549-5.978 5.312-8.813 8.187q-2.233 2.235-4.469 4.469l-2.48 2.48-7.582 7.582-2.368 2.37a820 820 0 0 1-3.696 3.672c-2.91 2.87-5.507 5.896-8.073 9.072L473 199h-2l-1 3c-1.937 2.188-1.937 2.188-4 4h-2l-.812 1.813c-1.187 2.185-2.284 3.6-4.188 5.187h-2l-.703 1.73c-1.615 2.827-3.573 4.472-6.047 6.583-3.015 2.638-5.84 5.209-8.375 8.312-1.972 2.403-4.002 4.43-6.375 6.438-5.983 5.08-11.4 10.76-16.915 16.335-9.015 9.11-15.667 15.712-29.022 16.102-10.278-.329-17.126-3.208-24.583-10.281-7.198-8.065-8.391-16.12-8.238-26.66 1.353-18.674 23.603-34.024 35.945-46.309l5.631-5.617Q405.155 172.813 412 166c-7.19-1.141-14.237-1.2-21.5-1.187l-2.076.001c-39.357.094-74.567 7.617-104.135 35.108C282 202 282 202 279.477 203.953c-8.13 6.72-14.34 16.535-20.477 25.047l-1.734 2.395c-25.78 37.993-33.192 85.15-33.891 130.018l-.115 6.316c-.338 19.599-.352 39.195-.274 58.796.024 6.073.037 12.146.048 18.219.032 17.221.075 34.443.137 51.665q.053 14.418.07 28.836.014 9.038.06 18.074c.017 3.733.02 7.465.02 11.198q.003 2.577.023 5.152c.106 14.328-.687 28.537-11.313 39.331-9.046 7.604-18.632 10.872-30.418 10.414-9.593-1.1-16.5-5.028-23.613-11.414l-1.59-1.383c-1.858-2.13-2.833-4.346-3.972-6.93l-1.254-2.8c-2.402-5.859-3.473-10.765-3.418-17.104l-.003-2.461c0-2.714.013-5.428.026-8.143l.004-5.852q.005-6.305.026-12.61c.022-6.686.03-13.371.037-20.057q.018-15.93.057-31.858.066-28.341.1-56.682.013-9.906.04-19.813c.053-19.7.035-39.388-.492-59.082l-.06-2.289c-.27-10.065-.818-20.059-2.032-30.057-.526-4.353-.853-8.703-1.125-13.078L144 306l-2-1a220 220 0 0 1-.655-5.54c-.668-4.768-2.114-9.348-3.47-13.96l-.946-3.217c-2.654-8.79-5.912-17.04-9.929-25.283l-1.005-2.11a750 750 0 0 0-3.12-6.452l-.947-1.95c-1.933-3.856-4.14-7.284-6.703-10.75-1.21-1.716-2.24-3.456-3.256-5.293C94.943 200.65 63.83 178.022 31 169c-19.882-5.182-41.789-4.854-62.187-3.5l-2.307.145q-2.753.174-5.506.355c6.925 7.666 14.06 15.1 21.387 22.383l1.976 1.965a3003 3003 0 0 0 10.032 9.922l3.753 3.718 1.788 1.747C1.33 207.12 2.67 208.555 4 210v2l3 1c7.398 9.062 9.163 17.392 8 29-2.204 9.064-7.076 16.45-15 21.375-8.836 5.07-17.674 5.93-27.676 4.148C-35.877 264.866-42.237 258.18-48 252l-1-3h-2v-2l-3-1a141 141 0 0 1-5-5 923 923 0 0 0-3.505-3.473q-5.279-5.227-10.544-10.466a2755 2755 0 0 0-4.554-4.513 2651 2651 0 0 1-6.573-6.528l-2.073-2.043-1.893-1.892-1.677-1.663C-91 209-91 209-91 207l-1.785-.797c-4.792-2.603-8.41-7.152-11.84-11.328-2.315-2.803-4.787-5.332-7.375-7.875l-1.762-1.733-4.013-3.939a3555 3555 0 0 1-9.281-9.164 1533 1533 0 0 0-4.888-4.806 1508 1508 0 0 1-7.087-6.999l-2.194-2.131c-7.445-7.442-11.844-14.717-12.088-25.353.192-17.083 12.77-27.623 24.106-38.828l3.708-3.692c3.23-3.218 6.468-6.43 9.706-9.641q7.79-7.726 15.564-15.468 2.706-2.689 5.417-5.372l3.328-3.309 1.51-1.489C-87.089 52.201-84.515 49.199-82 46a103 103 0 0 1 4.063-3.562c2.165-1.8 3.89-3.374 5.558-5.653L-71 35h2v-2h2l.688-1.75c1.66-2.845 3.733-4.187 6.312-6.25q1.498-1.662 2.938-3.375c3.514-4.092 7.219-7.968 11-11.812l1.736-1.8C-32.487-3.923-15.405-9.162 0 0" transform="translate(326 230)" style="fill:#000"/><path d="m0 0 2 1-2 1z" transform="translate(205 313)" style="fill:#000"/><path d="m0 0 2 1Z" transform="translate(465 528)" style="fill:#000"/><path d="m0 0 2 1Z" transform="translate(675 398)" style="fill:#000"/><path d="m0 0 2 1Z" transform="translate(333 396)" style="fill:#000"/><path d="m0 0 2 1Z" transform="translate(680 329)" style="fill:#000"/></svg>